<?xml version="1.0" encoding="iso-8859-1"?>
<!-- Generator: Adobe Illustrator 29.7.1, SVG Export Plug-In . SVG Version: 9.03 Build 0)  -->
<svg version="1.1" id="Laag_1" xmlns="http://www.w3.org/2000/svg" xmlns:xlink="http://www.w3.org/1999/xlink" x="0px" y="0px"
	 width="48px" height="48px" viewBox="0 0 48 48" enable-background="new 0 0 48 48" xml:space="preserve">
<g>
	<polygon fill="#020203" points="34.552,-152.488 46.305,-165.422 39.402,-165.422 25.594,-150.173 25.594,-165.422 
		19.739,-165.422 19.739,-134.837 25.594,-134.837 25.594,-142.658 30.401,-147.944 40.013,-134.837 47.047,-134.837 	"/>
	<polygon fill="#020203" points="13.259,-156.164 9.844,-156.164 9.844,-164.248 6.293,-164.248 6.293,-156.164 2.95,-156.164 
		2.95,-165.451 -0.601,-165.451 -0.601,-152.209 16.81,-152.209 16.81,-165.46 13.259,-165.46 	"/>
	<path fill="#020203" d="M12.501-150c-1.311-0.787-2.822-1.186-4.489-1.186c-1.662,0-3.175,0.394-4.498,1.172
		c-1.323,0.776-2.368,1.865-3.104,3.239c-0.731,1.366-1.102,2.932-1.102,4.652v7.304h17.408v-7.185c0-1.756-0.375-3.345-1.114-4.723
		C14.86-148.114,13.816-149.215,12.501-150z M2.882-138.775v-3.301c0-0.961,0.219-1.837,0.652-2.605
		c0.427-0.764,1.042-1.374,1.826-1.813c0.78-0.44,1.68-0.664,2.675-0.664c0.99,0,1.883,0.216,2.655,0.641
		c0.767,0.423,1.372,1.018,1.801,1.767c0.431,0.755,0.65,1.614,0.65,2.555v3.42H2.882z"/>
</g>
<path fill-rule="evenodd" clip-rule="evenodd" fill="#ED8D23" d="M138.839-174.527h-37.386c-2.897,0-5.239,2.342-5.239,5.228v37.386
	c0,2.897,2.342,5.239,5.239,5.239h37.386c2.886,0,5.228-2.342,5.228-5.239v-37.386C144.068-172.185,141.725-174.527,138.839-174.527
	z M109.523-163.249c-0.366,1.177-1.376,2.764-2.786,2.276c-0.966-0.655-1.443-1.798-1.854-2.853
	c-0.255-0.577-0.133-1.232-0.377-1.809c-0.488-0.422-0.866,0.422-0.877-1.066c0,0,0,0,0.011,0c-0.067-0.733,0.133-0.488,0.677-0.655
	c0.211-0.233,0.1-0.666,0.222-0.955c0.155-0.622,0.4-1.221,0.655-1.798c0.422-0.821,1.521-2.187,2.464-1.277
	c0.133,0.244-0.311,0.333-0.411,0.5c-0.955,0.855-1.487,2.076-1.454,3.352c0.022,0.344,0.488,0.1,0.71,0.122
	c0.244,0.011,1.21-0.178,1.265,0.011c0.067,0.355-0.366,0.322-0.566,0.477c-0.422,0.255-0.488,0.91-0.067,1.188
	c0.122,0.133,0.4,0.111,0.466,0.266c-0.222,0.166-1.854-0.366-1.765,0.1c0.067,0.544,0.189,1.088,0.389,1.61
	c0.688,2.142,1.931,1.876,2.531-0.144c0.122-0.733,0.511-1.365,0.622-2.087c0.078-0.2-0.078-0.588,0.233-0.622
	c0.588,0.022,0.167,0.899,0.311,1.232C110.244-164.969,109.645-163.759,109.523-163.249z M111.776-135.642
	c3.563-3.363,6.305-7.67,7.515-12.421c1.11-4.085,1.021-8.547-0.178-12.61c-0.011-0.033-0.033-0.067-0.044-0.1
	c-0.022-0.089,0.111-0.1,0.178-0.089c0.622,0,1.254-0.011,1.876,0c0.266,0.122,0.233,1.099,0.333,1.41
	c0.089,0.899,0.155,1.809,0.155,2.731c0,0.167-0.011,0.344-0.011,0.522c0.055,4.496-0.999,8.98-3.008,12.988
	c-1.809,3.597-4.618,6.694-8.059,8.803C110.011-134.299,111.743-135.497,111.776-135.642z M111.532-165.08
	c0.433-0.055,2.786-0.055,2.864,0.133c0.633,1.077,1.288,2.165,1.821,3.297c1.654,3.363,2.942,7.038,2.864,10.834
	c0,0.389,0,1.121-0.166,1.188c-0.155-0.821-0.233-1.188-0.366-1.854c-0.644-3.042-1.765-5.961-3.308-8.658
	c-0.977-1.676-2.142-3.264-3.474-4.684C111.71-164.914,111.554-164.98,111.532-165.08z M117.404-128.293
	c-0.044-0.011-0.056-0.067-0.033-0.111c0.211-0.544,0.333-1.132,0.577-1.676c0.388-1.154,0.866-2.287,1.41-3.375
	c0.377-0.81,0.81-1.587,1.288-2.342c0.133-0.522-0.799,0.144-1.021,0.144c-1.532,0.588-3.13,1.066-4.762,1.299
	c-1.166,0.233-2.409,0.3-3.597,0.167c-0.022-0.011-0.033-0.044-0.011-0.056c0.255-0.155,0.522-0.3,0.766-0.455
	c0.433-0.222,0.833-0.577,1.288-0.744c0.855-0.022,1.709-0.167,2.553-0.278c1.754-0.389,3.508-0.866,5.14-1.643
	c1.11-0.488,2.187-1.099,3.219-1.754c0.2-0.055,1.443-1.166,1.399-0.855C122.522-136.352,119.469-132.545,117.404-128.293z
	 M122.466-152.648c-0.078,0.144-0.366,0.71-0.444,0.655c0.144-0.522,0.222-1.043,0.388-1.554c0.744-2.931,1.854-5.794,3.597-8.292
	c0.566-0.733,1.11-1.632,1.92-2.098c0.855,0.044,1.798-0.089,2.62,0.056C126.973-160.884,124.331-156.877,122.466-152.648z
	 M132.545-166.368c0.056,0.755-0.688,0.411-1.166,0.477c-6.638-0.056-13.287-0.022-19.925-0.1c-0.233-0.011-1.032,0.244-0.522-0.178
	c0.377-0.333-0.144-1.077,0.255-1.066c6.683,0.078,13.354,0.078,20.036,0.055C131.924-167.212,132.656-167.367,132.545-166.368z
	 M139.972-166.601c-0.178,0.166-0.433,0.067-0.655,0.133c-0.799-0.022-0.477,0.977-0.688,1.476c-0.266,1.41-1.21,3.519-2.986,2.997
	c-0.233-0.133-0.699-0.311-0.511-0.666c0.122-0.255,0.033-0.633,0.477-0.622c0.999-0.044,1.432-1.11,1.876-1.843
	c0.266-0.733,0.677-1.388-0.5-0.988c-0.311,0.067-0.599,0.155-0.888,0.3c-0.089,0.022-0.322,0.244-0.333,0.067
	c0.044-0.067,0.155-0.067,0.155-0.178c0.089-0.122,0.311-0.1,0.377-0.266c0.355-0.522-0.089-0.866-0.377-1.199
	c0.178-0.278,0.089-0.289,0.411-0.178c0.477,0.078,0.988-0.055,1.476-0.022c0.355,0.055,0.244-0.344,0.266-0.566
	c0.111-0.766-0.189-1.543-0.622-2.165c-0.389-0.866-1.299-0.588-1.854-0.044c-0.644,0.599-1.032,1.376-1.454,2.131
	c-0.178,0.222-0.111,0.533-0.255,0.766c-0.344,0.344-1.066,0.044-1.243-0.355c0.122-0.944,0.71-1.82,1.121-2.675
	c0.544-0.844,2.287-1.743,3.286-1.432c0.577,0.278,1.055,0.921,1.388,1.643c0.333,0.733,0.522,1.543,0.522,2.153
	c-0.1,0.666,0.266,0.444,0.71,0.555c0.211,0.078,0.222,0.377,0.366,0.533C140.16-166.901,140.116-166.723,139.972-166.601z"/>
<g id="logo_00000037692076746083120850000001544395678735380898_">
	<path fill-rule="evenodd" clip-rule="evenodd" fill="#ED8D23" d="M23.13-97.117c0,0.182-0.012,0.377-0.012,0.571
		c0.061,4.919-1.093,9.826-3.292,14.211c-1.98,3.935-5.053,7.324-8.818,9.632c-0.571,0.121,1.324-1.19,1.36-1.348
		c3.899-3.68,6.899-8.393,8.223-13.592c1.215-4.47,1.118-9.353-0.194-13.798c-0.012-0.036-0.036-0.073-0.049-0.109
		c-0.024-0.097,0.121-0.109,0.194-0.097c0.68,0,1.373-0.012,2.053,0c0.291,0.134,0.255,1.202,0.364,1.543
		C23.057-99.121,23.13-98.125,23.13-97.117z"/>
	<path fill-rule="evenodd" clip-rule="evenodd" fill="#ED8D23" d="M35.094-107.672c0.061,0.826-0.753,0.449-1.275,0.522
		c-7.263-0.061-14.539-0.024-21.802-0.109c-0.255-0.012-1.13,0.267-0.571-0.194c0.413-0.364-0.158-1.178,0.279-1.166
		c7.312,0.085,14.612,0.085,21.924,0.061C34.414-108.595,35.216-108.765,35.094-107.672z"/>
	<path fill-rule="evenodd" clip-rule="evenodd" fill="#ED8D23" d="M43.22-107.927c-0.194,0.182-0.474,0.073-0.717,0.146
		c-0.875-0.024-0.522,1.069-0.753,1.615c-0.291,1.543-1.324,3.85-3.267,3.279c-0.255-0.146-0.765-0.34-0.559-0.729
		c0.134-0.279,0.036-0.692,0.522-0.68c1.093-0.049,1.567-1.215,2.053-2.016c0.291-0.802,0.741-1.518-0.547-1.081
		c-0.34,0.073-0.656,0.17-0.972,0.328c-0.097,0.024-0.352,0.267-0.364,0.073c0.049-0.073,0.17-0.073,0.17-0.194
		c0.097-0.134,0.34-0.109,0.413-0.291c0.389-0.571-0.097-0.947-0.413-1.312c0.194-0.304,0.097-0.316,0.449-0.194
		c0.522,0.085,1.081-0.061,1.615-0.024c0.389,0.061,0.267-0.377,0.291-0.619c0.121-0.838-0.207-1.688-0.68-2.369
		c-0.425-0.947-1.421-0.644-2.028-0.049c-0.704,0.656-1.13,1.506-1.591,2.332c-0.194,0.243-0.121,0.583-0.279,0.838
		c-0.377,0.377-1.166,0.049-1.36-0.389c0.134-1.032,0.777-1.992,1.227-2.927c0.595-0.923,2.502-1.907,3.595-1.567
		c0.632,0.304,1.154,1.008,1.518,1.798c0.364,0.802,0.571,1.688,0.571,2.356c-0.109,0.729,0.291,0.486,0.777,0.607
		c0.231,0.085,0.243,0.413,0.401,0.583C43.426-108.255,43.378-108.06,43.22-107.927z"/>
	<path fill-rule="evenodd" clip-rule="evenodd" fill="#ED8D23" d="M9.903-104.259c-0.401,1.287-1.506,3.024-3.049,2.49
		c-1.057-0.717-1.579-1.968-2.028-3.122c-0.279-0.632-0.146-1.348-0.413-1.98c-0.534-0.462-0.947,0.462-0.96-1.166c0,0,0,0,0.012,0
		c-0.073-0.802,0.146-0.534,0.741-0.717c0.231-0.255,0.109-0.729,0.243-1.045c0.17-0.68,0.437-1.336,0.717-1.968
		c0.462-0.899,1.664-2.393,2.696-1.397c0.146,0.267-0.34,0.364-0.449,0.547c-1.045,0.935-1.628,2.271-1.591,3.668
		c0.024,0.377,0.534,0.109,0.777,0.134c0.267,0.012,1.324-0.194,1.385,0.012c0.073,0.389-0.401,0.352-0.619,0.522
		c-0.462,0.279-0.534,0.996-0.073,1.3c0.134,0.146,0.437,0.122,0.51,0.292c-0.243,0.182-2.028-0.401-1.931,0.109
		c0.073,0.595,0.207,1.19,0.425,1.761c0.753,2.344,2.113,2.053,2.769-0.158c0.134-0.802,0.559-1.494,0.68-2.283
		c0.085-0.219-0.085-0.644,0.255-0.68c0.644,0.024,0.182,0.984,0.34,1.348C10.692-106.141,10.037-104.817,9.903-104.259z"/>
	<path fill-rule="evenodd" clip-rule="evenodd" fill="#ED8D23" d="M27.515-78.788c-3.389,3.96-6.729,8.126-8.988,12.778
		c-0.049-0.012-0.061-0.073-0.036-0.122c0.231-0.595,0.364-1.239,0.632-1.834c0.425-1.263,0.947-2.502,1.543-3.692
		c0.413-0.887,0.887-1.737,1.409-2.563c0.146-0.571-0.875,0.158-1.117,0.158c-1.676,0.644-3.425,1.166-5.211,1.421
		c-1.275,0.255-2.636,0.328-3.935,0.182c-0.024-0.012-0.036-0.049-0.012-0.061c0.279-0.17,0.571-0.328,0.838-0.498
		c0.474-0.243,0.911-0.632,1.409-0.814c0.935-0.024,1.87-0.182,2.794-0.304c1.919-0.425,3.838-0.947,5.624-1.798
		c1.215-0.534,2.393-1.202,3.522-1.919C26.203-77.913,27.564-79.128,27.515-78.788z"/>
	<path fill-rule="evenodd" clip-rule="evenodd" fill="#ED8D23" d="M20.361-90.655c0,0.425,0,1.227-0.182,1.3
		c-0.17-0.899-0.255-1.3-0.401-2.028c-0.704-3.328-1.931-6.522-3.62-9.474c-1.069-1.834-2.344-3.571-3.802-5.126
		c-0.061-0.097-0.231-0.17-0.255-0.279c0.474-0.061,3.049-0.061,3.134,0.146c0.692,1.178,1.409,2.369,1.992,3.607
		C19.037-98.829,20.446-94.809,20.361-90.655z"/>
	<path fill-rule="evenodd" clip-rule="evenodd" fill="#ED8D23" d="M32.908-104.951c-3.911,3.279-6.802,7.664-8.842,12.292
		c-0.085,0.158-0.401,0.777-0.486,0.717c0.158-0.571,0.243-1.142,0.425-1.7c0.814-3.207,2.028-6.34,3.935-9.073
		c0.619-0.802,1.215-1.785,2.101-2.296C30.977-104.963,32.009-105.109,32.908-104.951z"/>
</g>
<g>
	<polygon fill="#ED8D23" points="130.527,-93.623 142.28,-106.557 135.377,-106.557 121.57,-91.307 121.57,-106.557 
		115.715,-106.557 115.715,-75.971 121.57,-75.971 121.57,-83.793 126.377,-89.079 135.989,-75.971 143.023,-75.971 	"/>
	<polygon fill="#ED8D23" points="109.234,-97.299 105.82,-97.299 105.82,-105.383 102.269,-105.383 102.269,-97.299 98.925,-97.299 
		98.925,-106.586 95.374,-106.586 95.374,-93.344 112.785,-93.344 112.785,-106.595 109.234,-106.595 	"/>
	<path fill="#ED8D23" d="M108.477-91.135c-1.311-0.787-2.822-1.186-4.489-1.186c-1.662,0-3.175,0.394-4.498,1.172
		c-1.323,0.776-2.368,1.865-3.104,3.239c-0.731,1.366-1.102,2.932-1.102,4.652v7.304h17.408v-7.185c0-1.756-0.375-3.345-1.114-4.723
		C110.836-89.249,109.792-90.35,108.477-91.135z M98.858-79.91v-3.301c0-0.961,0.219-1.837,0.652-2.605
		c0.427-0.764,1.042-1.374,1.826-1.813c0.78-0.44,1.68-0.664,2.675-0.664c0.99,0,1.883,0.216,2.655,0.641
		c0.767,0.423,1.372,1.018,1.801,1.767c0.431,0.755,0.65,1.614,0.65,2.555v3.42H98.858z"/>
</g>
<g>
	<polygon fill="#ED8D23" points="129.615,-36.846 141.368,-49.779 134.465,-49.779 120.658,-34.53 120.658,-49.779 114.803,-49.779 
		114.803,-19.194 120.658,-19.194 120.658,-27.015 125.465,-32.302 135.076,-19.194 142.111,-19.194 	"/>
	<polygon fill="#ED8D23" points="108.322,-40.522 104.907,-40.522 104.907,-48.605 101.357,-48.605 101.357,-40.522 98.013,-40.522 
		98.013,-49.809 94.462,-49.809 94.462,-36.567 111.873,-36.567 111.873,-49.818 108.322,-49.818 	"/>
	<path fill="#ED8D23" d="M107.564-34.358c-1.311-0.787-2.822-1.186-4.489-1.186c-1.662,0-3.175,0.394-4.498,1.172
		c-1.323,0.776-2.368,1.865-3.104,3.239c-0.731,1.366-1.102,2.932-1.102,4.652v7.304h17.408v-7.185c0-1.756-0.375-3.345-1.114-4.723
		C109.923-32.472,108.88-33.573,107.564-34.358z M97.945-23.133v-3.301c0-0.961,0.219-1.837,0.652-2.605
		c0.427-0.764,1.042-1.374,1.826-1.813c0.78-0.44,1.68-0.664,2.675-0.664c0.99,0,1.883,0.216,2.655,0.641
		c0.767,0.423,1.372,1.018,1.801,1.767c0.431,0.755,0.65,1.614,0.65,2.555v3.42H97.945z"/>
</g>
<path fill-rule="evenodd" clip-rule="evenodd" fill="#ED8D23" d="M-95.574,19.366L-95.574,19.366
	c-13.101,0-23.82-10.719-23.82-23.82v0c0-13.101,10.719-23.82,23.82-23.82h0c13.101,0,23.82,10.719,23.82,23.82v0
	C-71.754,8.647-82.473,19.366-95.574,19.366z"/>
<g>
	<path fill="#FEFDFA" d="M-98.084,4.587c1.909-3.807,2.891-8.045,2.839-12.254c0-0.082,0.002-0.165,0.005-0.246
		c0.003-0.082,0.005-0.164,0.005-0.243c0-0.754-0.045-1.549-0.155-2.616c-0.026-0.08-0.043-0.254-0.06-0.421
		c-0.047-0.458-0.09-0.891-0.352-1.012l-0.075-0.017c-0.39-0.005-0.785-0.004-1.178-0.002l-0.553,0.005
		c-0.034-0.005-0.215-0.027-0.322,0.088c-0.056,0.06-0.076,0.142-0.051,0.24c0.008,0.023,0.019,0.047,0.039,0.086
		c1.124,3.81,1.183,7.97,0.165,11.717c-1.087,4.266-3.503,8.26-6.989,11.55l-0.041,0.038l-0.005,0.023
		c-0.066,0.069-0.296,0.255-0.468,0.392c-0.697,0.559-0.875,0.713-0.781,0.91c0.023,0.049,0.079,0.121,0.208,0.121
		c0.026,0,0.057-0.004,0.09-0.011l0.059-0.023C-102.457,10.92-99.822,8.042-98.084,4.587z"/>
	<path fill="#FEFDFA" d="M-86.234-18.152l-0.18,0.011c-5.513,0.017-12.056,0.026-18.769-0.052c-0.145-0.007-0.218,0.053-0.26,0.101
		c-0.111,0.125-0.086,0.297-0.059,0.48c0.032,0.218,0.047,0.379-0.044,0.46c-0.1,0.083-0.287,0.238-0.206,0.42
		c0.084,0.185,0.302,0.149,0.579,0.105c0.083-0.013,0.19-0.024,0.232-0.026c3.447,0.04,6.953,0.048,10.344,0.057
		c2.777,0.006,5.553,0.013,8.355,0.035c0.102-0.014,0.234-0.004,0.361,0.007c0.091,0.007,0.183,0.016,0.272,0.016
		c0.179,0,0.346-0.031,0.471-0.154c0.114-0.113,0.163-0.276,0.15-0.497c0.035-0.341-0.024-0.588-0.182-0.753
		C-85.419-18.205-85.834-18.179-86.234-18.152z"/>
	<path fill="#FEFDFA" d="M-78.018-17.958c-0.031-0.034-0.058-0.097-0.087-0.162c-0.057-0.132-0.134-0.313-0.348-0.39
		c-0.127-0.032-0.247-0.038-0.343-0.043c-0.065-0.004-0.162-0.009-0.182-0.023c0-0.001-0.03-0.046,0.002-0.273
		c0-0.615-0.189-1.398-0.506-2.096c-0.368-0.796-0.861-1.375-1.414-1.639c-1.003-0.307-2.731,0.548-3.303,1.439
		c-0.095,0.197-0.2,0.395-0.306,0.596c-0.33,0.625-0.672,1.271-0.762,1.969l-0.007,0.052l0.021,0.047
		c0.12,0.272,0.444,0.505,0.786,0.568c0.275,0.057,0.516-0.012,0.708-0.213c0.082-0.132,0.107-0.276,0.129-0.402
		c0.021-0.12,0.039-0.224,0.115-0.323l0.134-0.242c0.35-0.633,0.68-1.232,1.196-1.713c0.312-0.307,0.701-0.473,0.991-0.413
		c0.193,0.036,0.343,0.171,0.462,0.429c0.255,0.367,0.666,1.099,0.55,1.902c-0.005,0.053-0.004,0.116-0.002,0.18
		c0.001,0.06,0.005,0.173,0.008,0.188l-0.057-0.004c-0.216-0.017-0.432,0.003-0.642,0.019c-0.255,0.022-0.498,0.04-0.692,0.012
		l-0.045-0.016c-0.221-0.078-0.352-0.11-0.49,0.141c-0.017,0.03-0.038,0.069-0.068,0.117l-0.075,0.118l0.092,0.105
		c0.036,0.043,0.076,0.085,0.115,0.128c0.299,0.324,0.411,0.494,0.206,0.804c-0.005,0.013-0.057,0.033-0.09,0.047
		c-0.077,0.031-0.172,0.069-0.241,0.162l-0.036,0.049v0.02c-0.033,0.021-0.079,0.051-0.114,0.104l-0.035,0.053l0.004,0.063
		c0.009,0.132,0.084,0.19,0.129,0.213c0.134,0.072,0.269-0.014,0.368-0.076c0.022-0.013,0.042-0.026,0.085-0.045
		c0.233-0.116,0.476-0.198,0.809-0.271c0.38-0.129,0.489-0.104,0.493-0.112c0.02,0.078-0.087,0.349-0.158,0.53
		c-0.034,0.087-0.069,0.176-0.087,0.234c-0.063,0.103-0.125,0.213-0.189,0.327c-0.356,0.629-0.723,1.279-1.404,1.31
		c-0.448-0.003-0.527,0.317-0.57,0.514c-0.015,0.066-0.028,0.128-0.047,0.168c-0.082,0.153-0.069,0.283-0.044,0.365
		c0.072,0.234,0.324,0.366,0.507,0.462l0.128,0.064c0.191,0.057,0.377,0.085,0.558,0.085c0.321,0,0.626-0.088,0.911-0.263
		c0.868-0.531,1.377-1.781,1.553-2.736c0.076-0.181,0.089-0.4,0.102-0.613c0.031-0.516,0.098-0.652,0.366-0.657l0.03,0.001
		l0.029-0.009c0.055-0.016,0.123-0.016,0.196-0.017c0.149-0.002,0.333-0.004,0.489-0.146
		C-77.873-17.463-77.839-17.746-78.018-17.958z"/>
	<path fill="#FEFDFA" d="M-106.198-16.717c0.028-0.257,0.06-0.549-0.103-0.738c-0.084-0.098-0.204-0.15-0.384-0.155
		c-0.362,0.039-0.361,0.378-0.361,0.541c0,0.058,0,0.13-0.022,0.2c-0.05,0.323-0.162,0.627-0.282,0.948
		c-0.118,0.318-0.241,0.648-0.295,0.983c-0.255,0.859-0.652,1.396-1.036,1.4c-0.001,0-0.003,0-0.004,0
		c-0.355,0-0.718-0.474-0.977-1.279c-0.165-0.43-0.281-0.906-0.349-1.43c0.141-0.033,0.529,0.025,0.747,0.056
		c0.45,0.067,0.691,0.095,0.83-0.01l0.117-0.088l-0.057-0.135c-0.068-0.157-0.223-0.207-0.337-0.244
		c-0.049-0.016-0.115-0.037-0.169-0.088c-0.119-0.078-0.186-0.213-0.183-0.368c0.003-0.178,0.095-0.342,0.257-0.442
		c0.036-0.028,0.106-0.053,0.174-0.076c0.174-0.059,0.498-0.171,0.421-0.572c-0.08-0.272-0.498-0.229-1.029-0.171
		c-0.14,0.015-0.26,0.032-0.317,0.026c-0.091-0.006-0.192,0.011-0.29,0.03c-0.067,0.014-0.193,0.047-0.208,0.037
		c-0.029-1.139,0.445-2.231,1.301-2.998l0.035-0.043c0.015-0.02,0.084-0.063,0.125-0.088c0.128-0.079,0.428-0.264,0.264-0.566
		l-0.035-0.045c-0.279-0.27-0.594-0.373-0.935-0.321c-0.698,0.116-1.336,0.916-1.674,1.575c-0.221,0.501-0.469,1.096-0.615,1.689
		c-0.06,0.142-0.071,0.297-0.081,0.448c-0.01,0.14-0.019,0.272-0.067,0.357c-0.098,0.026-0.182,0.036-0.251,0.045
		c-0.351,0.044-0.472,0.169-0.468,0.545h-0.001l0.001,0.189c0.005,0.565,0.061,0.826,0.207,0.962
		c0.121,0.113,0.268,0.105,0.375,0.098c0.104-0.006,0.182-0.011,0.272,0.053c0.088,0.229,0.114,0.477,0.14,0.738
		c0.031,0.303,0.064,0.616,0.193,0.909c0.429,1.1,0.889,2.138,1.806,2.761l0.044,0.022c0.185,0.064,0.368,0.096,0.549,0.096
		c0.247,0,0.491-0.06,0.727-0.18c0.787-0.398,1.33-1.381,1.575-2.169l0.003-0.012c0.029-0.122,0.088-0.286,0.155-0.471
		c0.216-0.605,0.459-1.288,0.205-1.659C-106.229-16.433-106.212-16.59-106.198-16.717z"/>
	<path fill="#FEFDFA" d="M-92.588,7.844c-0.164,0.125-0.388,0.296-0.439,0.317l-0.05,0.022c-1.086,0.689-2.064,1.222-2.997,1.633
		c-1.627,0.775-3.407,1.222-4.76,1.523l-0.492,0.068c-0.618,0.086-1.256,0.174-1.881,0.191l-0.059,0.012
		c-0.273,0.099-0.52,0.262-0.758,0.42c-0.156,0.102-0.31,0.204-0.485,0.295c-0.13,0.083-0.265,0.161-0.402,0.241
		c-0.104,0.061-0.209,0.121-0.296,0.175c-0.071,0.035-0.116,0.105-0.118,0.183l0.02,0.15l0.103,0.054l0.066,0.02
		c1.105,0.121,2.29,0.067,3.417-0.157c1.393-0.2,2.859-0.598,4.478-1.218c0.097-0.013,0.213-0.068,0.395-0.154
		c0.072-0.035,0.18-0.086,0.272-0.123c-0.437,0.704-0.807,1.383-1.126,2.068c-0.524,1.046-0.972,2.118-1.325,3.169
		c-0.135,0.302-0.232,0.616-0.325,0.92c-0.068,0.224-0.137,0.446-0.213,0.644c-0.038,0.076-0.04,0.164-0.006,0.237l0.073,0.111
		l0.234,0.057l0.066-0.136c2.01-4.137,5.013-7.796,7.671-10.902l0.035-0.041l0.008-0.054c0.015-0.099-0.024-0.187-0.104-0.234
		C-91.754,7.231-91.936,7.347-92.588,7.844z"/>
	<path fill="#FEFDFA" d="M-104.865-15.703c0.021,0.016,0.052,0.042,0.081,0.081c1.214,1.295,2.301,2.76,3.23,4.355
		c1.446,2.527,2.482,5.239,3.078,8.056l0.086,0.424c0.08,0.397,0.148,0.734,0.258,1.311l0.042,0.223l0.21-0.084
		c0.234-0.093,0.274-0.472,0.274-1.284c0.063-3.105-0.796-6.358-2.702-10.233c-0.456-0.969-1.01-1.909-1.545-2.819l-0.157-0.263
		c-0.164-0.398-2.853-0.243-2.88-0.238l-0.204,0.026l0.045,0.201C-105.022-15.831-104.931-15.757-104.865-15.703z"/>
	<path fill="#FEFDFA" d="M-88.543-15.106c-0.317,0.009-0.644,0.017-0.95,0.002l-0.055-0.003l-0.048,0.027
		c-0.645,0.371-1.102,0.995-1.544,1.599c-0.104,0.141-0.207,0.281-0.315,0.422c-1.492,2.137-2.603,4.698-3.395,7.819
		c-0.093,0.286-0.158,0.576-0.22,0.857c-0.045,0.203-0.09,0.405-0.146,0.608l-0.035,0.126l0.192,0.129l0.083-0.02
		c0.121-0.028,0.213-0.131,0.493-0.658l0.034-0.065c1.927-4.371,4.458-7.889,7.521-10.459l0.307-0.258l-0.395-0.069
		C-87.504-15.136-88.032-15.122-88.543-15.106z"/>
</g>
<g id="logo_00000131362443486303570330000013723506566213937827_">
	<path fill-rule="evenodd" clip-rule="evenodd" fill="#FFFFFF" stroke="#FEFDFA" stroke-width="0.4" stroke-miterlimit="10" d="
		M-55.958-57.417c0,0.167-0.011,0.345-0.011,0.523c0.056,4.51-1.002,9.008-3.017,13.028c-1.815,3.608-4.632,6.714-8.084,8.83
		c-0.523,0.111,1.214-1.091,1.247-1.236c3.574-3.374,6.325-7.694,7.538-12.46c1.113-4.098,1.024-8.574-0.178-12.649
		c-0.011-0.033-0.033-0.067-0.045-0.1c-0.022-0.089,0.111-0.1,0.178-0.089c0.624,0,1.258-0.011,1.882,0
		c0.267,0.122,0.234,1.102,0.334,1.414C-56.024-59.254-55.958-58.341-55.958-57.417z"/>
	<path fill-rule="evenodd" clip-rule="evenodd" fill="#FFFFFF" stroke="#FEFDFA" stroke-width="0.4" stroke-miterlimit="10" d="
		M-44.99-67.093c0.056,0.757-0.69,0.412-1.169,0.479c-6.659-0.056-13.328-0.022-19.987-0.1c-0.234-0.011-1.036,0.245-0.523-0.178
		c0.379-0.334-0.145-1.08,0.256-1.069c6.703,0.078,13.395,0.078,20.098,0.056C-45.613-67.939-44.878-68.095-44.99-67.093z"/>
	<path fill-rule="evenodd" clip-rule="evenodd" fill="#FFFFFF" stroke="#FEFDFA" stroke-width="0.4" stroke-miterlimit="10" d="
		M-37.541-67.327c-0.178,0.167-0.434,0.067-0.657,0.134c-0.802-0.022-0.479,0.98-0.69,1.481c-0.267,1.414-1.214,3.53-2.995,3.006
		c-0.234-0.134-0.701-0.312-0.512-0.668c0.122-0.256,0.033-0.635,0.479-0.624c1.002-0.045,1.436-1.113,1.882-1.848
		c0.267-0.735,0.679-1.392-0.501-0.991c-0.312,0.067-0.601,0.156-0.891,0.301c-0.089,0.022-0.323,0.245-0.334,0.067
		c0.045-0.067,0.156-0.067,0.156-0.178c0.089-0.122,0.312-0.1,0.379-0.267c0.356-0.523-0.089-0.869-0.379-1.203
		c0.178-0.278,0.089-0.29,0.412-0.178c0.479,0.078,0.991-0.056,1.481-0.022c0.356,0.056,0.245-0.345,0.267-0.568
		c0.111-0.768-0.189-1.548-0.624-2.171c-0.39-0.868-1.303-0.59-1.86-0.045c-0.646,0.601-1.036,1.381-1.459,2.138
		c-0.178,0.223-0.111,0.535-0.256,0.768c-0.345,0.345-1.069,0.045-1.247-0.356c0.122-0.946,0.713-1.826,1.125-2.683
		c0.546-0.846,2.294-1.748,3.296-1.436c0.579,0.278,1.058,0.924,1.392,1.648c0.334,0.735,0.523,1.548,0.523,2.16
		c-0.1,0.668,0.267,0.445,0.713,0.557c0.212,0.078,0.223,0.379,0.367,0.534C-37.351-67.628-37.396-67.449-37.541-67.327z"/>
	<path fill-rule="evenodd" clip-rule="evenodd" fill="#FFFFFF" stroke="#FEFDFA" stroke-width="0.4" stroke-miterlimit="10" d="
		M-68.083-63.964c-0.367,1.18-1.381,2.773-2.795,2.283c-0.969-0.657-1.448-1.804-1.859-2.862c-0.256-0.579-0.134-1.236-0.379-1.815
		c-0.49-0.423-0.869,0.423-0.88-1.069c0,0,0,0,0.011,0c-0.067-0.735,0.134-0.49,0.679-0.657c0.212-0.234,0.1-0.668,0.223-0.958
		c0.156-0.624,0.401-1.225,0.657-1.804c0.423-0.824,1.525-2.194,2.472-1.28c0.134,0.245-0.312,0.334-0.412,0.501
		c-0.958,0.857-1.492,2.082-1.459,3.363c0.022,0.345,0.49,0.1,0.713,0.123c0.245,0.011,1.214-0.178,1.269,0.011
		c0.067,0.356-0.367,0.323-0.568,0.479c-0.423,0.256-0.49,0.913-0.067,1.191c0.122,0.134,0.401,0.111,0.468,0.267
		c-0.223,0.167-1.859-0.367-1.77,0.1c0.067,0.546,0.189,1.091,0.39,1.615c0.69,2.149,1.937,1.882,2.539-0.145
		c0.123-0.735,0.512-1.37,0.624-2.093c0.078-0.2-0.078-0.59,0.234-0.624c0.59,0.022,0.167,0.902,0.312,1.236
		C-67.36-65.69-67.961-64.476-68.083-63.964z"/>
	<path fill-rule="evenodd" clip-rule="evenodd" fill="#FFFFFF" stroke="#FEFDFA" stroke-width="0.4" stroke-miterlimit="10" d="
		M-51.938-40.614c-3.107,3.63-6.169,7.449-8.24,11.714c-0.045-0.011-0.056-0.067-0.033-0.111c0.212-0.546,0.334-1.136,0.579-1.681
		c0.39-1.158,0.868-2.294,1.414-3.385c0.379-0.813,0.813-1.592,1.292-2.349c0.134-0.523-0.802,0.145-1.024,0.145
		c-1.537,0.59-3.14,1.069-4.777,1.303c-1.169,0.234-2.416,0.301-3.608,0.167c-0.022-0.011-0.033-0.045-0.011-0.056
		c0.256-0.156,0.523-0.301,0.768-0.457c0.434-0.223,0.835-0.579,1.292-0.746c0.857-0.022,1.715-0.167,2.561-0.278
		c1.759-0.39,3.519-0.869,5.155-1.648c1.113-0.49,2.194-1.102,3.229-1.759C-53.14-39.813-51.893-40.926-51.938-40.614z"/>
	<path fill-rule="evenodd" clip-rule="evenodd" fill="#FFFFFF" stroke="#FEFDFA" stroke-width="0.4" stroke-miterlimit="10" d="
		M-58.496-51.493c0,0.39,0,1.125-0.167,1.191c-0.156-0.824-0.234-1.191-0.367-1.859c-0.646-3.051-1.77-5.979-3.318-8.685
		c-0.98-1.681-2.149-3.274-3.485-4.699c-0.056-0.089-0.212-0.156-0.234-0.256c0.434-0.056,2.795-0.056,2.873,0.134
		c0.635,1.08,1.292,2.171,1.826,3.307C-59.71-58.987-58.418-55.301-58.496-51.493z"/>
	<path fill-rule="evenodd" clip-rule="evenodd" fill="#FFFFFF" stroke="#FEFDFA" stroke-width="0.4" stroke-miterlimit="10" d="
		M-46.994-64.599c-3.585,3.006-6.235,7.026-8.106,11.268c-0.078,0.145-0.367,0.713-0.445,0.657c0.145-0.523,0.223-1.047,0.39-1.559
		c0.746-2.94,1.86-5.812,3.608-8.318c0.568-0.735,1.113-1.637,1.926-2.104C-48.764-64.61-47.818-64.744-46.994-64.599z"/>
</g>
<path fill-rule="evenodd" clip-rule="evenodd" fill="#ED8D23" d="M40.234-48.51c-4.32-4.32-10.27-7-16.82-7
	c-6.55,0-12.5,2.68-16.82,7s-7,10.27-7,16.82c0,13.11,10.72,23.82,23.82,23.82c6.55,0,12.5-2.68,16.82-6.99
	c4.32-4.32,7-10.27,7-16.83C47.234-38.24,44.554-44.19,40.234-48.51z M12.574-41.93c-0.06,0.18-0.12,0.35-0.15,0.47v0.01
	c-0.25,0.79-0.79,1.77-1.58,2.17c-0.23,0.12-0.48,0.18-0.72,0.18c-0.19,0-0.37-0.03-0.55-0.09l-0.05-0.03
	c-0.91-0.62-1.37-1.66-1.8-2.76c-0.13-0.29-0.17-0.6-0.2-0.91c-0.02-0.26-0.05-0.5-0.14-0.73c-0.09-0.07-0.17-0.06-0.27-0.06
	c-0.11,0.01-0.25,0.02-0.37-0.09c-0.15-0.14-0.21-0.4-0.21-0.97v-0.19c-0.01-0.37,0.12-0.5,0.47-0.54c0.07-0.01,0.15-0.02,0.25-0.04
	c0.05-0.09,0.05-0.22,0.06-0.36c0.02-0.15,0.03-0.31,0.09-0.45c0.14-0.59,0.39-1.19,0.61-1.69c0.34-0.66,0.98-1.46,1.68-1.57
	c0.34-0.06,0.65,0.05,0.93,0.32l0.04,0.04c0.16,0.3-0.14,0.49-0.27,0.57c-0.04,0.02-0.11,0.07-0.12,0.09l-0.04,0.04
	c-0.86,0.77-1.33,1.86-1.3,3c0.02,0.01,0.14-0.03,0.21-0.04c0.1-0.02,0.2-0.04,0.29-0.03c0.06,0,0.17-0.01,0.32-0.03
	c0.53-0.06,0.94-0.1,1.02,0.17c0.08,0.4-0.24,0.52-0.42,0.58c-0.06,0.02-0.13,0.04-0.17,0.07c-0.16,0.1-0.25,0.26-0.26,0.44
	c0,0.16,0.07,0.29,0.19,0.37c0.05,0.05,0.12,0.07,0.16,0.09c0.12,0.04,0.27,0.09,0.34,0.24l0.06,0.14l-0.12,0.09
	c-0.14,0.1-0.38,0.07-0.83,0.01c-0.22-0.04-0.6-0.09-0.75-0.06c0.07,0.52,0.19,1,0.35,1.43c0.26,0.81,0.63,1.28,0.98,1.28
	c0,0,0,0,0.01,0c0.38,0,0.78-0.54,1.03-1.4c0.06-0.34,0.18-0.66,0.3-0.98s0.23-0.63,0.28-0.95c0.02-0.07,0.02-0.14,0.02-0.2
	c0-0.16,0-0.5,0.36-0.54c0.18,0,0.3,0.06,0.39,0.15c0.16,0.19,0.13,0.48,0.1,0.74c-0.01,0.13-0.03,0.29-0.01,0.36
	C13.034-43.22,12.794-42.54,12.574-41.93z M13.224-14.3c-0.03,0.01-0.06,0.01-0.09,0.01c-0.12,0-0.18-0.07-0.2-0.12
	c-0.1-0.19,0.08-0.35,0.78-0.91c0.17-0.13,0.4-0.32,0.47-0.39v-0.02l0.04-0.04c3.49-3.29,5.9-7.28,6.99-11.55
	c1.02-3.75,0.96-7.91-0.16-11.72c-0.02-0.04-0.04-0.06-0.04-0.08c-0.03-0.1-0.01-0.18,0.05-0.24c0.11-0.12,0.29-0.1,0.32-0.09
	l0.55-0.01c0.4,0,0.79,0,1.18,0.01l0.08,0.01c0.26,0.12,0.3,0.56,0.35,1.01c0.02,0.17,0.03,0.35,0.06,0.43
	c0.11,1.06,0.15,1.86,0.15,2.61v0.24c-0.01,0.09-0.01,0.17-0.01,0.25c0.05,4.21-0.93,8.45-2.84,12.26
	c-1.73,3.45-4.37,6.33-7.62,8.32L13.224-14.3z M13.894-43.38l0.21-0.02c0.02-0.01,2.71-0.16,2.88,0.23l0.15,0.27
	c0.54,0.91,1.09,1.85,1.55,2.81c1.91,3.88,2.76,7.13,2.7,10.24c0,0.81-0.04,1.19-0.27,1.28l-0.21,0.09l-0.04-0.23
	c-0.11-0.57-0.18-0.91-0.26-1.31l-0.09-0.42c-0.59-2.82-1.63-5.53-3.08-8.06c-0.93-1.59-2.01-3.06-3.23-4.35
	c-0.03-0.04-0.06-0.07-0.08-0.08c-0.06-0.06-0.15-0.13-0.18-0.25L13.894-43.38z M27.504-19.61l-0.04,0.04
	c-2.66,3.11-5.66,6.77-7.67,10.9l-0.06,0.14l-0.24-0.06l-0.07-0.11c-0.03-0.07-0.03-0.16,0.01-0.24c0.07-0.19,0.14-0.42,0.21-0.64
	c0.09-0.3,0.19-0.62,0.32-0.92c0.36-1.05,0.8-2.12,1.33-3.17c0.32-0.68,0.69-1.36,1.12-2.07c-0.09,0.04-0.2,0.09-0.27,0.13
	c-0.18,0.08-0.3,0.14-0.39,0.15c-1.62,0.62-3.09,1.02-4.48,1.22c-1.13,0.22-2.31,0.28-3.42,0.15l-0.06-0.02l-0.11-0.05l-0.02-0.15
	c0-0.08,0.05-0.15,0.12-0.18c0.09-0.06,0.19-0.12,0.3-0.18c0.13-0.08,0.27-0.16,0.4-0.24c0.17-0.09,0.33-0.19,0.48-0.29
	c0.24-0.16,0.49-0.32,0.76-0.42l0.06-0.01c0.63-0.02,1.26-0.11,1.88-0.2l0.49-0.06c1.36-0.3,3.14-0.75,4.76-1.53
	c0.94-0.41,1.92-0.94,3-1.63l0.05-0.02c0.05-0.02,0.28-0.19,0.44-0.32c0.65-0.49,0.83-0.61,1-0.51c0.08,0.05,0.12,0.14,0.11,0.24
	L27.504-19.61z M32.064-41.95c-3.06,2.57-5.59,6.08-7.52,10.46l-0.04,0.06c-0.28,0.53-0.37,0.63-0.49,0.66l-0.08,0.02l-0.19-0.13
	l0.03-0.13c0.06-0.2,0.1-0.4,0.15-0.6c0.06-0.28,0.12-0.57,0.22-0.86c0.79-3.12,1.9-5.68,3.39-7.82c0.11-0.14,0.21-0.28,0.32-0.42
	c0.44-0.61,0.9-1.23,1.54-1.6l0.05-0.03h0.05c0.31,0.02,0.64,0.01,0.95,0c0.52-0.01,1.04-0.03,1.53,0.06l0.4,0.07L32.064-41.95z
	 M33.854-43.93c-0.13,0.13-0.29,0.16-0.47,0.16c-0.09,0-0.18-0.01-0.27-0.02c-0.13-0.01-0.26-0.02-0.36,0
	c-2.81-0.03-5.58-0.03-8.36-0.04c-3.39-0.01-6.9-0.02-10.34-0.06c-0.05,0.01-0.15,0.02-0.24,0.03c-0.27,0.04-0.49,0.08-0.57-0.1
	c-0.09-0.19,0.1-0.34,0.2-0.42c0.09-0.08,0.08-0.25,0.05-0.46c-0.03-0.19-0.06-0.36,0.05-0.48c0.05-0.05,0.12-0.11,0.26-0.1
	c6.72,0.07,13.26,0.06,18.77,0.05l0.18-0.01c0.4-0.03,0.82-0.06,1.07,0.2c0.16,0.17,0.21,0.42,0.18,0.76
	C34.014-44.2,33.964-44.04,33.854-43.93z M40.414-44.36c-0.08,0-0.14,0-0.2,0.02l-0.03,0.01h-0.03c-0.27,0-0.33,0.14-0.36,0.65
	c-0.02,0.22-0.03,0.44-0.11,0.62c-0.17,0.95-0.68,2.2-1.55,2.73c-0.28,0.18-0.59,0.26-0.91,0.26c-0.18,0-0.37-0.02-0.56-0.08
	l-0.13-0.06c-0.18-0.1-0.43-0.23-0.5-0.47c-0.03-0.08-0.04-0.21,0.04-0.36c0.02-0.04,0.03-0.1,0.05-0.17
	c0.04-0.19,0.12-0.51,0.57-0.51c0.68-0.03,1.05-0.68,1.4-1.31c0.07-0.11,0.13-0.23,0.19-0.33c0.02-0.06,0.05-0.15,0.09-0.23
	c0.07-0.18,0.18-0.46,0.16-0.53c-0.01,0.01-0.12-0.02-0.5,0.11c-0.33,0.07-0.57,0.15-0.81,0.27c-0.04,0.02-0.06,0.03-0.08,0.05
	c-0.1,0.06-0.24,0.14-0.37,0.07c-0.04-0.02-0.12-0.08-0.13-0.21v-0.06l0.03-0.06c0.04-0.05,0.08-0.08,0.12-0.1v-0.02l0.03-0.05
	c0.07-0.09,0.17-0.13,0.24-0.16c0.04-0.02,0.09-0.04,0.09-0.05c0.21-0.31,0.1-0.48-0.2-0.8c-0.04-0.05-0.08-0.09-0.12-0.13
	l-0.09-0.11l0.08-0.11c0.03-0.05,0.05-0.09,0.07-0.12c0.13-0.25,0.26-0.22,0.49-0.14l0.04,0.01c0.2,0.03,0.44,0.01,0.69-0.01
	c0.21-0.01,0.43-0.03,0.64-0.02l0.06,0.01c0-0.02,0-0.13-0.01-0.19c0-0.06,0-0.13,0.01-0.18c0.11-0.8-0.3-1.54-0.55-1.9
	c-0.12-0.26-0.27-0.4-0.47-0.43c-0.29-0.06-0.67,0.11-0.99,0.41c-0.51,0.48-0.84,1.08-1.19,1.71l-0.14,0.25
	c-0.07,0.1-0.09,0.2-0.11,0.32c-0.02,0.13-0.05,0.27-0.13,0.4c-0.19,0.2-0.43,0.27-0.71,0.21c-0.34-0.06-0.66-0.29-0.79-0.56
	l-0.02-0.05l0.01-0.05c0.09-0.7,0.43-1.35,0.76-1.97c0.11-0.2,0.21-0.4,0.31-0.6c0.57-0.89,2.3-1.74,3.3-1.44
	c0.55,0.27,1.05,0.85,1.41,1.64c0.32,0.7,0.51,1.48,0.51,2.1c-0.03,0.23,0,0.27,0,0.27c0.02,0.02,0.12,0.02,0.18,0.03
	c0.1,0,0.22,0.01,0.34,0.04c0.22,0.08,0.3,0.26,0.35,0.39c0.03,0.06,0.06,0.13,0.09,0.16c0.18,0.21,0.14,0.5-0.07,0.68
	C40.744-44.36,40.564-44.36,40.414-44.36z"/>
<g>
	<path fill="#ED8D23" d="M20.636,31.607c2.213-4.413,3.352-9.327,3.291-14.207c0-0.095,0.003-0.191,0.006-0.286
		c0.003-0.095,0.006-0.19,0.006-0.281c0-0.875-0.052-1.796-0.179-3.033c-0.03-0.093-0.05-0.294-0.07-0.489
		c-0.054-0.531-0.105-1.033-0.408-1.173l-0.087-0.02c-0.453-0.006-0.91-0.004-1.366-0.002l-0.641,0.005
		c-0.04-0.006-0.25-0.032-0.374,0.103c-0.065,0.07-0.088,0.165-0.059,0.278c0.009,0.026,0.022,0.054,0.045,0.099
		c1.304,4.417,1.371,9.239,0.191,13.584c-1.26,4.945-4.061,9.576-8.102,13.391l-0.048,0.044l-0.006,0.026
		c-0.076,0.08-0.343,0.295-0.543,0.455c-0.807,0.648-1.014,0.827-0.906,1.054c0.027,0.057,0.091,0.141,0.241,0.141
		c0.031,0,0.066-0.004,0.104-0.013l0.068-0.026C15.566,38.949,18.621,35.612,20.636,31.607z"/>
	<path fill="#ED8D23" d="M34.374,5.245l-0.209,0.013c-6.392,0.02-13.977,0.031-21.76-0.06c-0.168-0.008-0.252,0.061-0.302,0.117
		c-0.129,0.145-0.099,0.345-0.068,0.556c0.038,0.253,0.055,0.439-0.051,0.533C11.868,6.5,11.651,6.68,11.745,6.89
		c0.097,0.215,0.351,0.172,0.672,0.122c0.096-0.015,0.22-0.027,0.269-0.031c3.996,0.047,8.061,0.056,11.992,0.066
		c3.219,0.007,6.438,0.015,9.686,0.04c0.118-0.016,0.271-0.004,0.418,0.008c0.106,0.008,0.213,0.018,0.316,0.018
		c0.207,0,0.401-0.036,0.546-0.179c0.132-0.131,0.189-0.319,0.173-0.576c0.041-0.396-0.028-0.682-0.211-0.873
		C35.318,5.183,34.837,5.214,34.374,5.245z"/>
	<path fill="#ED8D23" d="M43.899,5.47c-0.036-0.039-0.068-0.112-0.1-0.188c-0.066-0.153-0.155-0.363-0.403-0.453
		c-0.148-0.037-0.287-0.044-0.398-0.05c-0.075-0.004-0.188-0.011-0.212-0.026c-0.001-0.001-0.034-0.053,0.003-0.316
		c0-0.713-0.219-1.62-0.587-2.43c-0.426-0.923-0.998-1.594-1.639-1.901c-1.163-0.356-3.166,0.636-3.829,1.668
		c-0.11,0.228-0.232,0.458-0.354,0.691c-0.383,0.724-0.779,1.473-0.884,2.282l-0.008,0.06l0.025,0.055
		c0.14,0.315,0.515,0.586,0.912,0.659c0.318,0.066,0.598-0.014,0.821-0.246c0.095-0.153,0.124-0.319,0.149-0.466
		c0.024-0.139,0.045-0.259,0.134-0.374l0.155-0.28c0.406-0.734,0.788-1.428,1.387-1.986c0.362-0.355,0.812-0.548,1.149-0.479
		c0.224,0.042,0.397,0.198,0.536,0.497c0.296,0.425,0.772,1.274,0.637,2.205c-0.006,0.061-0.005,0.134-0.003,0.208
		c0.002,0.07,0.005,0.201,0.01,0.218l-0.066-0.004c-0.251-0.02-0.501,0.003-0.745,0.022c-0.296,0.025-0.577,0.047-0.803,0.014
		l-0.052-0.019c-0.256-0.091-0.408-0.128-0.568,0.164c-0.02,0.035-0.044,0.08-0.079,0.135l-0.087,0.136l0.106,0.122
		c0.042,0.05,0.088,0.098,0.134,0.148c0.347,0.375,0.476,0.573,0.238,0.932c-0.006,0.015-0.066,0.038-0.105,0.054
		c-0.089,0.036-0.2,0.08-0.279,0.188L39.05,6.765v0.023c-0.039,0.024-0.091,0.059-0.133,0.121l-0.041,0.061l0.005,0.073
		c0.01,0.153,0.097,0.22,0.149,0.246c0.155,0.084,0.312-0.016,0.427-0.088c0.025-0.015,0.049-0.031,0.099-0.052
		c0.27-0.134,0.552-0.23,0.938-0.314c0.44-0.149,0.566-0.121,0.572-0.13c0.023,0.09-0.101,0.405-0.183,0.614
		c-0.04,0.1-0.08,0.204-0.1,0.272c-0.073,0.12-0.145,0.247-0.219,0.379C40.151,8.7,39.724,9.454,38.935,9.49
		c-0.52-0.003-0.611,0.368-0.661,0.595c-0.017,0.076-0.033,0.148-0.054,0.195c-0.095,0.178-0.08,0.328-0.051,0.423
		c0.084,0.271,0.375,0.424,0.588,0.535l0.148,0.074c0.221,0.066,0.437,0.098,0.647,0.098c0.372,0,0.726-0.102,1.056-0.305
		c1.006-0.616,1.596-2.064,1.801-3.172c0.088-0.209,0.104-0.464,0.118-0.711c0.036-0.599,0.114-0.756,0.425-0.761l0.034,0.001
		l0.033-0.011c0.063-0.019,0.143-0.019,0.227-0.02c0.172-0.002,0.387-0.004,0.566-0.169C44.066,6.044,44.106,5.715,43.899,5.47z"/>
	<path fill="#ED8D23" d="M11.229,6.908c0.032-0.298,0.069-0.637-0.12-0.856c-0.098-0.113-0.237-0.173-0.445-0.18
		c-0.419,0.045-0.419,0.438-0.419,0.627c0,0.068,0,0.151-0.026,0.232c-0.058,0.374-0.188,0.727-0.327,1.099
		C9.755,8.2,9.613,8.581,9.55,8.97c-0.296,0.996-0.756,1.618-1.201,1.623c-0.002,0-0.003,0-0.005,0c-0.411,0-0.833-0.55-1.133-1.483
		C7.02,8.612,6.885,8.06,6.806,7.452C6.969,7.414,7.419,7.48,7.672,7.516c0.521,0.077,0.801,0.11,0.962-0.012L8.77,7.402
		L8.703,7.246c-0.078-0.182-0.259-0.24-0.39-0.283C8.256,6.944,8.179,6.919,8.117,6.861C7.979,6.77,7.901,6.614,7.905,6.434
		c0.004-0.206,0.11-0.397,0.298-0.512C8.245,5.89,8.326,5.861,8.404,5.835c0.201-0.069,0.577-0.198,0.488-0.663
		C8.799,4.856,8.315,4.906,7.699,4.974C7.537,4.991,7.399,5.011,7.332,5.005C7.227,4.997,7.109,5.017,6.996,5.039
		C6.918,5.055,6.772,5.093,6.754,5.083C6.721,3.762,7.27,2.496,8.263,1.607l0.041-0.05c0.017-0.023,0.098-0.073,0.145-0.103
		c0.149-0.092,0.497-0.306,0.306-0.656l-0.04-0.052C8.391,0.435,8.026,0.315,7.63,0.375C6.821,0.51,6.081,1.437,5.689,2.202
		c-0.256,0.581-0.544,1.27-0.713,1.958c-0.07,0.165-0.082,0.345-0.094,0.519C4.87,4.841,4.86,4.994,4.804,5.092
		c-0.114,0.03-0.21,0.041-0.291,0.052C4.106,5.195,3.966,5.34,3.97,5.776H3.968L3.97,5.994C3.975,6.649,4.04,6.952,4.21,7.11
		c0.141,0.131,0.31,0.122,0.435,0.113c0.12-0.007,0.21-0.013,0.315,0.061C5.062,7.55,5.092,7.838,5.123,8.14
		C5.16,8.492,5.197,8.854,5.347,9.194c0.497,1.275,1.031,2.479,2.094,3.2l0.051,0.025c0.214,0.074,0.426,0.111,0.636,0.111
		c0.287,0,0.569-0.07,0.843-0.208c0.913-0.461,1.541-1.601,1.825-2.515L10.8,9.793c0.034-0.142,0.103-0.332,0.179-0.546
		c0.25-0.701,0.533-1.493,0.237-1.924C11.193,7.238,11.212,7.056,11.229,6.908z"/>
	<path fill="#ED8D23" d="M27.007,35.383c-0.19,0.145-0.449,0.343-0.509,0.368l-0.058,0.025c-1.259,0.799-2.393,1.417-3.474,1.893
		c-1.886,0.898-3.95,1.417-5.518,1.765l-0.571,0.078c-0.716,0.099-1.456,0.202-2.181,0.221l-0.069,0.014
		c-0.316,0.115-0.602,0.304-0.879,0.487c-0.18,0.118-0.359,0.237-0.562,0.342c-0.15,0.096-0.308,0.187-0.466,0.279
		c-0.121,0.071-0.243,0.141-0.343,0.203c-0.082,0.04-0.135,0.122-0.136,0.213l0.023,0.173l0.119,0.062l0.076,0.023
		c1.281,0.141,2.655,0.077,3.961-0.182c1.616-0.232,3.314-0.694,5.191-1.412c0.112-0.015,0.247-0.078,0.458-0.179
		c0.084-0.04,0.209-0.099,0.315-0.143c-0.507,0.816-0.935,1.603-1.305,2.398c-0.607,1.213-1.126,2.456-1.536,3.674
		c-0.157,0.35-0.269,0.714-0.377,1.066c-0.079,0.259-0.159,0.517-0.246,0.747c-0.044,0.088-0.047,0.19-0.007,0.275L19,47.903
		l0.271,0.066l0.076-0.158c2.33-4.796,5.812-9.038,8.894-12.64l0.041-0.048l0.009-0.062c0.017-0.115-0.028-0.217-0.12-0.271
		C27.974,34.673,27.763,34.807,27.007,35.383z"/>
	<path fill="#ED8D23" d="M12.774,8.084c0.024,0.019,0.06,0.049,0.094,0.094c1.407,1.501,2.667,3.199,3.745,5.049
		c1.676,2.93,2.877,6.074,3.569,9.34l0.099,0.492c0.093,0.46,0.171,0.851,0.299,1.52l0.049,0.258l0.244-0.097
		c0.272-0.108,0.317-0.547,0.318-1.489c0.073-3.6-0.923-7.371-3.132-11.863c-0.528-1.123-1.171-2.214-1.792-3.268l-0.182-0.305
		c-0.19-0.461-3.308-0.281-3.339-0.276l-0.236,0.03l0.052,0.233C12.592,7.936,12.697,8.022,12.774,8.084z"/>
	<path fill="#ED8D23" d="M31.697,8.776c-0.368,0.011-0.747,0.02-1.102,0.002l-0.063-0.003l-0.056,0.032
		c-0.747,0.43-1.278,1.154-1.791,1.854c-0.121,0.164-0.24,0.326-0.365,0.49c-1.729,2.477-3.018,5.447-3.935,9.065
		c-0.108,0.331-0.183,0.667-0.255,0.993c-0.052,0.235-0.105,0.47-0.17,0.704l-0.04,0.146l0.223,0.149l0.096-0.023
		c0.14-0.033,0.247-0.152,0.571-0.763l0.04-0.075c2.234-5.067,5.168-9.146,8.72-12.126l0.356-0.299l-0.458-0.08
		C32.902,8.742,32.289,8.758,31.697,8.776z"/>
</g>
<g>
</g>
<g>
</g>
<g>
</g>
<g>
</g>
<g>
</g>
<g>
</g>
</svg>
